<mxfile host="Electron" agent="Mozilla/5.0 (Windows NT 10.0; Win64; x64) AppleWebKit/537.36 (KHTML, like Gecko) draw.io/28.2.5 Chrome/138.0.7204.251 Electron/37.6.1 Safari/537.36" version="28.2.5">
  <diagram name="Page-1" id="0cwFPx7k3b8d1ofxsOlY">
    <mxGraphModel dx="1224" dy="1192" grid="1" gridSize="10" guides="1" tooltips="1" connect="1" arrows="1" fold="1" page="1" pageScale="1" pageWidth="850" pageHeight="1100" math="0" shadow="0">
      <root>
        <mxCell id="0" />
        <mxCell id="1" parent="0" />
        <mxCell id="Xkzc1jHTl2cqYNs75A9y-1" value="" style="sketch=0;outlineConnect=0;fontColor=#ffffff;fillColor=#0050ef;strokeColor=#001DBC;dashed=0;verticalLabelPosition=bottom;verticalAlign=top;align=center;html=1;fontSize=12;fontStyle=0;aspect=fixed;pointerEvents=1;shape=mxgraph.aws4.office_building;" vertex="1" parent="1">
          <mxGeometry x="50" y="360" width="83.33" height="130" as="geometry" />
        </mxCell>
        <mxCell id="Xkzc1jHTl2cqYNs75A9y-2" value="On prem SQL DB" style="rounded=1;whiteSpace=wrap;html=1;" vertex="1" parent="1">
          <mxGeometry x="31.670000000000016" y="490" width="120" height="60" as="geometry" />
        </mxCell>
        <mxCell id="Xkzc1jHTl2cqYNs75A9y-3" value="" style="shape=image;editableCssRules=.*;verticalLabelPosition=bottom;labelBackgroundColor=default;verticalAlign=top;aspect=fixed;imageAspect=0;image=data:image/svg+xml,PHN2ZyB4bWxucz0iaHR0cDovL3d3dy53My5vcmcvMjAwMC9zdmciIHZpZXdCb3g9Ii0wLjUgLTAuNSAyOCAyOCIgaGVpZ2h0PSIyOCIgd2lkdGg9IjI4Ij4mI3hhOwkgIDxzdHlsZSB0eXBlPSJ0ZXh0L2NzcyI+LnN0MCB7IHN0b3AtY29sb3I6IHJnYigzNSwgMTQ5LCAyNTUpOyB9IC5zdDEgeyBzdG9wLWNvbG9yOiByZ2IoMCwgODcsIDIxMCk7IH0gPC9zdHlsZT4mI3hhOwk8ZGVmcz4mI3hhOwkJPGxpbmVhckdyYWRpZW50IGdyYWRpZW50VW5pdHM9InVzZXJTcGFjZU9uVXNlIiB5Mj0iMjUuMzA5IiB4Mj0iMjMuNDU0IiB5MT0iMy40NzQiIHgxPSIyLjAzOSIgaWQ9IkEiPiYjeGE7CQkJPHN0b3AgY2xhc3M9InN0MCIvPiYjeGE7CQkJPHN0b3AgY2xhc3M9InN0MSIgb2Zmc2V0PSIxIi8+JiN4YTsJCTwvbGluZWFyR3JhZGllbnQ+JiN4YTsJPC9kZWZzPiYjeGE7CTxwYXRoIGZpbGw9InVybCgjQSkiIGQ9Ik0yNi45OTYgMTIuNDIybC02LjY1LTUuNTE2YTEuNCAxLjQgMCAwIDAtMS40ODQtLjE5NmMtLjQ5LjIyNC0uNzk4LjcyOC0uNzk4IDEuMjc0djIuNTM0TDEzLjcxIDYuOTA2YTEuNCAxLjQgMCAwIDAtMS40ODQtLjE5NmMtLjQ5LjIyNC0uNzk4LjcyOC0uNzk4IDEuMjc0VjEyLjFIOC41ODZWLjljMC0uNzctLjYzLTEuNC0xLjQtMS40SC45Qy4xMy0uNS0uNS4xMy0uNS45djI1LjJjMCAuNzcuNjMgMS40IDEuNCAxLjRoMjUuMmMuNzcgMCAxLjQtLjYzIDEuNC0xLjRWMTMuNWExLjM5IDEuMzkgMCAwIDAtLjUwNC0xLjA3OHpNNS43NTggMjQuN0gyLjN2LTMuNWgzLjQ1OHptMC02LjNIMi4zdi0zLjVoMy40NTh6bTAtNi4zSDIuM1Y4LjgyNGgzLjQ1OHptMC02LjA3NkgyLjNWMi4zaDMuNDU4ek0yNC42ODYgMjQuN0g4LjU1OHYtMy41aDEuODQ4Yy43NyAwIDEuNC0uNjMgMS40LTEuNHMtLjYzLTEuNC0xLjQtMS40SDguNTU4di0zLjVIMTIuOGMuNzcgMCAxLjQtLjYzIDEuNC0xLjR2LTIuNTM0bDQuMzU0IDMuNjEyYTEuNCAxLjQgMCAwIDAgMS40ODQuMTk2Yy40OS0uMjI0Ljc5OC0uNzI4Ljc5OC0xLjI3NHYtMi41MzRsMy44NSAzLjE5MnptLTkuMzY2LTMuMTVhMS43NSAxLjc1IDAgMSAwIDAtMy41IDEuNzUgMS43NSAwIDEgMCAwIDMuNXptNi45My0xLjc1YTEuNzUgMS43NSAwIDEgMS0zLjUgMCAxLjc1IDEuNzUgMCAxIDEgMy41IDB6IiBmaWxsLXJ1bGU9ImV2ZW5vZGQiLz4mI3hhOzwvc3ZnPg==;" vertex="1" parent="1">
          <mxGeometry x="188.34000000000003" y="150" width="90" height="90" as="geometry" />
        </mxCell>
        <mxCell id="Xkzc1jHTl2cqYNs75A9y-4" value="Azure Data Factory" style="rounded=1;whiteSpace=wrap;html=1;" vertex="1" parent="1">
          <mxGeometry x="170" y="240" width="120" height="60" as="geometry" />
        </mxCell>
        <mxCell id="Xkzc1jHTl2cqYNs75A9y-5" value="" style="image;sketch=0;aspect=fixed;html=1;points=[];align=center;fontSize=12;image=img/lib/mscae/Data_Lake.svg;" vertex="1" parent="1">
          <mxGeometry x="370" y="100" width="60.8" height="80" as="geometry" />
        </mxCell>
        <mxCell id="Xkzc1jHTl2cqYNs75A9y-6" value="Azure Data Lake" style="rounded=1;whiteSpace=wrap;html=1;" vertex="1" parent="1">
          <mxGeometry x="340.4" y="180" width="120" height="60" as="geometry" />
        </mxCell>
        <mxCell id="Xkzc1jHTl2cqYNs75A9y-8" value="" style="html=1;verticalLabelPosition=bottom;align=center;labelBackgroundColor=#ffffff;verticalAlign=top;strokeWidth=2;strokeColor=#0080F0;shadow=0;dashed=0;shape=mxgraph.ios7.icons.data;" vertex="1" parent="1">
          <mxGeometry x="500" y="120" width="40" height="49.1" as="geometry" />
        </mxCell>
        <mxCell id="Xkzc1jHTl2cqYNs75A9y-10" value="" style="html=1;verticalLabelPosition=bottom;align=center;labelBackgroundColor=#ffffff;verticalAlign=top;strokeWidth=2;strokeColor=#0080F0;shadow=0;dashed=0;shape=mxgraph.ios7.icons.data;" vertex="1" parent="1">
          <mxGeometry x="660" y="120" width="40" height="49.1" as="geometry" />
        </mxCell>
        <mxCell id="Xkzc1jHTl2cqYNs75A9y-11" value="" style="html=1;verticalLabelPosition=bottom;align=center;labelBackgroundColor=#ffffff;verticalAlign=top;strokeWidth=2;strokeColor=#0080F0;shadow=0;dashed=0;shape=mxgraph.ios7.icons.data;" vertex="1" parent="1">
          <mxGeometry x="580" y="120" width="40" height="49.1" as="geometry" />
        </mxCell>
        <mxCell id="Xkzc1jHTl2cqYNs75A9y-12" value="Bronze Layer" style="rounded=1;whiteSpace=wrap;html=1;" vertex="1" parent="1">
          <mxGeometry x="470" y="180" width="90" height="30" as="geometry" />
        </mxCell>
        <mxCell id="Xkzc1jHTl2cqYNs75A9y-13" value="Silver Layer" style="rounded=1;whiteSpace=wrap;html=1;" vertex="1" parent="1">
          <mxGeometry x="560" y="180" width="90" height="30" as="geometry" />
        </mxCell>
        <mxCell id="Xkzc1jHTl2cqYNs75A9y-14" value="Gold Layer" style="rounded=1;whiteSpace=wrap;html=1;" vertex="1" parent="1">
          <mxGeometry x="650" y="180" width="90" height="30" as="geometry" />
        </mxCell>
        <mxCell id="Xkzc1jHTl2cqYNs75A9y-15" value="" style="points=[];aspect=fixed;html=1;align=center;shadow=0;dashed=0;fillColor=#FF6A00;strokeColor=none;shape=mxgraph.alibaba_cloud.spark_data_insights;" vertex="1" parent="1">
          <mxGeometry x="700" y="230" width="73.77" height="80" as="geometry" />
        </mxCell>
        <mxCell id="Xkzc1jHTl2cqYNs75A9y-37" value="" style="edgeStyle=orthogonalEdgeStyle;rounded=0;orthogonalLoop=1;jettySize=auto;html=1;" edge="1" parent="1" source="Xkzc1jHTl2cqYNs75A9y-16" target="Xkzc1jHTl2cqYNs75A9y-17">
          <mxGeometry relative="1" as="geometry" />
        </mxCell>
        <mxCell id="Xkzc1jHTl2cqYNs75A9y-16" value="Azure Databricks" style="rounded=1;whiteSpace=wrap;html=1;" vertex="1" parent="1">
          <mxGeometry x="676.88" y="320" width="120" height="60" as="geometry" />
        </mxCell>
        <mxCell id="Xkzc1jHTl2cqYNs75A9y-17" value="" style="image;aspect=fixed;html=1;points=[];align=center;fontSize=12;image=img/lib/azure2/analytics/Azure_Synapse_Analytics.svg;" vertex="1" parent="1">
          <mxGeometry x="706.89" y="460" width="60" height="69" as="geometry" />
        </mxCell>
        <mxCell id="Xkzc1jHTl2cqYNs75A9y-18" value="" style="image;aspect=fixed;html=1;points=[];align=center;fontSize=12;image=img/lib/azure2/analytics/Power_BI_Embedded.svg;" vertex="1" parent="1">
          <mxGeometry x="711" y="650" width="51" height="68" as="geometry" />
        </mxCell>
        <mxCell id="Xkzc1jHTl2cqYNs75A9y-19" value="Azure Synapse" style="rounded=1;whiteSpace=wrap;html=1;" vertex="1" parent="1">
          <mxGeometry x="676.5" y="540" width="120" height="60" as="geometry" />
        </mxCell>
        <mxCell id="Xkzc1jHTl2cqYNs75A9y-20" value="Power BI" style="rounded=1;whiteSpace=wrap;html=1;" vertex="1" parent="1">
          <mxGeometry x="676.89" y="730" width="120" height="60" as="geometry" />
        </mxCell>
        <mxCell id="Xkzc1jHTl2cqYNs75A9y-21" value="" style="endArrow=none;dashed=1;html=1;dashPattern=1 3;strokeWidth=2;rounded=0;" edge="1" parent="1">
          <mxGeometry width="50" height="50" relative="1" as="geometry">
            <mxPoint x="400" y="280" as="sourcePoint" />
            <mxPoint x="800" y="280" as="targetPoint" />
          </mxGeometry>
        </mxCell>
        <mxCell id="Xkzc1jHTl2cqYNs75A9y-22" value="" style="endArrow=none;dashed=1;html=1;dashPattern=1 3;strokeWidth=2;rounded=0;" edge="1" parent="1">
          <mxGeometry width="50" height="50" relative="1" as="geometry">
            <mxPoint x="400" y="50" as="sourcePoint" />
            <mxPoint x="400" y="280" as="targetPoint" />
          </mxGeometry>
        </mxCell>
        <mxCell id="Xkzc1jHTl2cqYNs75A9y-23" value="" style="endArrow=none;dashed=1;html=1;dashPattern=1 3;strokeWidth=2;rounded=0;" edge="1" parent="1">
          <mxGeometry width="50" height="50" relative="1" as="geometry">
            <mxPoint x="400" y="50" as="sourcePoint" />
            <mxPoint x="800" y="50" as="targetPoint" />
          </mxGeometry>
        </mxCell>
        <mxCell id="Xkzc1jHTl2cqYNs75A9y-24" value="" style="endArrow=none;dashed=1;html=1;dashPattern=1 3;strokeWidth=2;rounded=0;" edge="1" parent="1">
          <mxGeometry width="50" height="50" relative="1" as="geometry">
            <mxPoint x="790" y="280" as="sourcePoint" />
            <mxPoint x="790" y="50" as="targetPoint" />
          </mxGeometry>
        </mxCell>
        <mxCell id="Xkzc1jHTl2cqYNs75A9y-25" value="" style="image;aspect=fixed;perimeter=ellipsePerimeter;html=1;align=center;shadow=0;dashed=0;spacingTop=3;image=img/lib/active_directory/active_directory.svg;" vertex="1" parent="1">
          <mxGeometry x="220" y="730" width="50" height="42.5" as="geometry" />
        </mxCell>
        <mxCell id="Xkzc1jHTl2cqYNs75A9y-26" value="" style="image;aspect=fixed;html=1;points=[];align=center;fontSize=12;image=img/lib/azure2/security/Key_Vaults.svg;" vertex="1" parent="1">
          <mxGeometry x="340.4" y="717.25" width="68" height="68" as="geometry" />
        </mxCell>
        <mxCell id="Xkzc1jHTl2cqYNs75A9y-27" value="Azure AD" style="rounded=1;whiteSpace=wrap;html=1;" vertex="1" parent="1">
          <mxGeometry x="185" y="785.25" width="115" height="34.75" as="geometry" />
        </mxCell>
        <mxCell id="Xkzc1jHTl2cqYNs75A9y-28" value="Key Vualts" style="rounded=1;whiteSpace=wrap;html=1;" vertex="1" parent="1">
          <mxGeometry x="320" y="785.25" width="115" height="34.75" as="geometry" />
        </mxCell>
        <mxCell id="Xkzc1jHTl2cqYNs75A9y-30" value="" style="curved=1;endArrow=classic;html=1;rounded=0;entryX=0;entryY=0.5;entryDx=0;entryDy=0;" edge="1" parent="1" source="Xkzc1jHTl2cqYNs75A9y-1" target="Xkzc1jHTl2cqYNs75A9y-3">
          <mxGeometry width="50" height="50" relative="1" as="geometry">
            <mxPoint x="80" y="280" as="sourcePoint" />
            <mxPoint x="130" y="230" as="targetPoint" />
            <Array as="points">
              <mxPoint x="130" y="280" />
              <mxPoint x="80" y="230" />
            </Array>
          </mxGeometry>
        </mxCell>
        <mxCell id="Xkzc1jHTl2cqYNs75A9y-31" value="" style="curved=1;endArrow=classic;html=1;rounded=0;" edge="1" parent="1" source="Xkzc1jHTl2cqYNs75A9y-3" target="Xkzc1jHTl2cqYNs75A9y-5">
          <mxGeometry width="50" height="50" relative="1" as="geometry">
            <mxPoint x="290.4" y="180" as="sourcePoint" />
            <mxPoint x="340.4" y="130" as="targetPoint" />
            <Array as="points">
              <mxPoint x="340.4" y="180" />
              <mxPoint x="290.4" y="130" />
            </Array>
          </mxGeometry>
        </mxCell>
        <mxCell id="Xkzc1jHTl2cqYNs75A9y-32" value="" style="shape=flexArrow;endArrow=classic;html=1;rounded=0;" edge="1" parent="1">
          <mxGeometry width="50" height="50" relative="1" as="geometry">
            <mxPoint x="430.8" y="144.05" as="sourcePoint" />
            <mxPoint x="500.8" y="144.05" as="targetPoint" />
          </mxGeometry>
        </mxCell>
        <mxCell id="Xkzc1jHTl2cqYNs75A9y-33" value="" style="shape=flexArrow;endArrow=classic;html=1;rounded=0;" edge="1" parent="1">
          <mxGeometry width="50" height="50" relative="1" as="geometry">
            <mxPoint x="530" y="150" as="sourcePoint" />
            <mxPoint x="600" y="150" as="targetPoint" />
          </mxGeometry>
        </mxCell>
        <mxCell id="Xkzc1jHTl2cqYNs75A9y-34" value="" style="shape=flexArrow;endArrow=classic;html=1;rounded=0;" edge="1" parent="1">
          <mxGeometry width="50" height="50" relative="1" as="geometry">
            <mxPoint x="610" y="150" as="sourcePoint" />
            <mxPoint x="680" y="150" as="targetPoint" />
          </mxGeometry>
        </mxCell>
        <mxCell id="Xkzc1jHTl2cqYNs75A9y-35" value="" style="curved=1;endArrow=classic;html=1;rounded=0;exitX=0.8;exitY=0.672;exitDx=0;exitDy=0;exitPerimeter=0;entryX=0.637;entryY=0.175;entryDx=0;entryDy=0;entryPerimeter=0;" edge="1" parent="1" source="Xkzc1jHTl2cqYNs75A9y-10" target="Xkzc1jHTl2cqYNs75A9y-15">
          <mxGeometry width="50" height="50" relative="1" as="geometry">
            <mxPoint x="740" y="165" as="sourcePoint" />
            <mxPoint x="790" y="115" as="targetPoint" />
            <Array as="points">
              <mxPoint x="730" y="115" />
            </Array>
          </mxGeometry>
        </mxCell>
        <mxCell id="Xkzc1jHTl2cqYNs75A9y-36" value="" style="endArrow=classic;html=1;rounded=0;exitX=0.61;exitY=0.613;exitDx=0;exitDy=0;exitPerimeter=0;entryX=0.485;entryY=0.043;entryDx=0;entryDy=0;entryPerimeter=0;" edge="1" parent="1" source="Xkzc1jHTl2cqYNs75A9y-15" target="Xkzc1jHTl2cqYNs75A9y-17">
          <mxGeometry width="50" height="50" relative="1" as="geometry">
            <mxPoint x="470" y="630" as="sourcePoint" />
            <mxPoint x="660" y="430" as="targetPoint" />
          </mxGeometry>
        </mxCell>
        <mxCell id="Xkzc1jHTl2cqYNs75A9y-38" value="" style="endArrow=classic;html=1;rounded=0;" edge="1" parent="1" source="Xkzc1jHTl2cqYNs75A9y-17" target="Xkzc1jHTl2cqYNs75A9y-18">
          <mxGeometry width="50" height="50" relative="1" as="geometry">
            <mxPoint x="470" y="630" as="sourcePoint" />
            <mxPoint x="520" y="580" as="targetPoint" />
          </mxGeometry>
        </mxCell>
        <mxCell id="Xkzc1jHTl2cqYNs75A9y-39" value="" style="endArrow=none;html=1;rounded=0;" edge="1" parent="1">
          <mxGeometry width="50" height="50" relative="1" as="geometry">
            <mxPoint x="160" y="680" as="sourcePoint" />
            <mxPoint x="470" y="680" as="targetPoint" />
          </mxGeometry>
        </mxCell>
        <mxCell id="Xkzc1jHTl2cqYNs75A9y-40" value="" style="endArrow=none;html=1;rounded=0;" edge="1" parent="1">
          <mxGeometry width="50" height="50" relative="1" as="geometry">
            <mxPoint x="160" y="870" as="sourcePoint" />
            <mxPoint x="470" y="870" as="targetPoint" />
          </mxGeometry>
        </mxCell>
        <mxCell id="Xkzc1jHTl2cqYNs75A9y-41" value="" style="endArrow=none;html=1;rounded=0;" edge="1" parent="1">
          <mxGeometry width="50" height="50" relative="1" as="geometry">
            <mxPoint x="470" y="680" as="sourcePoint" />
            <mxPoint x="470" y="870" as="targetPoint" />
          </mxGeometry>
        </mxCell>
        <mxCell id="Xkzc1jHTl2cqYNs75A9y-42" value="" style="endArrow=none;html=1;rounded=0;" edge="1" parent="1">
          <mxGeometry width="50" height="50" relative="1" as="geometry">
            <mxPoint x="160" y="680" as="sourcePoint" />
            <mxPoint x="160" y="870" as="targetPoint" />
          </mxGeometry>
        </mxCell>
      </root>
    </mxGraphModel>
  </diagram>
</mxfile>
